<svg width="228" height="28" viewBox="0 0 228 28" fill="none" xmlns="http://www.w3.org/2000/svg">
<path d="M141.719 25.3921C141.719 26.4471 141.062 27.3617 139.699 27.3617C138.335 27.3617 137.695 26.4471 137.695 25.3921V24.4438C137.695 23.3888 138.335 22.5078 139.699 22.5078C141.062 22.5078 141.719 23.3888 141.719 24.4438V25.3921ZM138.127 25.3921C138.127 26.3573 138.61 26.9296 139.699 26.9296C140.787 26.9296 141.287 26.3573 141.287 25.3921V24.4438C141.287 23.4954 140.804 22.9231 139.699 22.9231C138.593 22.9231 138.127 23.4954 138.127 24.4438V25.3921ZM139.699 25.1508H139.283V26.2899H138.711V23.4562H139.783C140.507 23.4562 140.821 23.7816 140.821 24.2866C140.821 24.6682 140.613 24.9769 140.232 25.0835L140.972 26.2899H140.333L139.693 25.1508H139.699ZM139.283 24.7524H139.766C140.148 24.7524 140.232 24.5616 140.232 24.3035C140.232 24.0454 140.148 23.8882 139.766 23.8882H139.283V24.7524Z" fill="white"/>
<path d="M152.688 0.588867H149.793V26.8898H152.688V0.588867Z" fill="white"/>
<path d="M64.7171 21.3013H54.2461V3.12012C54.2461 1.52086 52.9499 0.224609 51.3506 0.224609C49.7513 0.224609 48.4551 1.52086 48.4551 3.12012V24.6064C48.4551 26.8959 50.7165 26.8959 50.7165 26.8959L64.7171 26.8791C66.2546 26.8791 67.5004 25.6333 67.5004 24.0958C67.5004 22.5582 66.2546 21.3125 64.7171 21.3125V21.3013Z" fill="white"/>
<path d="M34.3027 0C28.2704 0 23.3828 3.87191 23.3828 9.90423V17.2104C23.3828 23.2427 28.2704 27.1146 34.3027 27.1146C40.335 27.1146 45.2226 23.2427 45.2226 17.2104V9.90423C45.2226 3.87191 40.335 0 34.3027 0ZM39.4148 17.3001C39.4148 20.1227 37.1253 21.9352 34.3027 21.9352C31.4802 21.9352 29.1907 20.1227 29.1907 17.3001V9.82006C29.1907 6.99749 31.4802 5.18499 34.3027 5.18499C37.1253 5.18499 39.4148 6.99749 39.4148 9.82006V17.3001Z" fill="white"/>
<path d="M17.4242 10.5492C15.8811 10.5492 14.6297 11.8006 14.6297 13.3437V21.716H10.191C10.191 21.716 5.56158 21.716 5.58964 17.7319V9.78605C5.58964 9.78605 5.56158 5.85242 10.0732 5.85242H17.1044C18.5577 5.85242 19.7361 4.67401 19.7361 3.22064C19.7361 1.76728 18.5577 0.588867 17.1044 0.588867H10.0732C10.0732 0.588867 0.000623372 0.588868 0.000623372 9.78044V17.7263C0.000623372 17.7263 -0.240671 26.8898 8.77134 26.8898H18.3164C18.1032 26.8898 20.2356 26.9291 20.2243 25.1166V13.3381C20.2243 11.795 18.973 10.5436 17.4298 10.5436L17.4242 10.5492Z" fill="white"/>
<path d="M80.4923 0.589595H71.6879C69.3984 0.589595 69.3984 3.25504 69.3984 3.25504V24.8031C69.3984 26.8849 71.5308 26.8849 71.5308 26.8849H80.4923C92.8712 26.8849 92.9834 0.583984 80.4923 0.583984V0.589595ZM80.0771 21.3015H75.1502V5.84754H80.0771C85.032 5.84754 85.2003 21.3015 80.0771 21.3015Z" fill="white"/>
<path d="M132.521 0.588867C130.888 0.588867 129.564 1.91317 129.564 3.54611V13.0295L121.511 2.10396C119.037 -0.81961 115.266 0.925556 115.266 3.72006V24.1626C115.266 25.8853 116.663 27.2826 118.391 27.2826C120.12 27.2826 121.517 25.8853 121.517 24.1626V13.3774L130.748 25.919C132.442 28.1917 135.489 27.7932 135.489 24.6115V3.55172C135.489 1.91879 134.165 0.59448 132.532 0.59448L132.521 0.588867Z" fill="white"/>
<path d="M110.081 5.85242C111.534 5.85242 112.713 4.67401 112.713 3.22064C112.713 1.76728 111.534 0.588867 110.081 0.588867H95.3338C92.5449 0.588867 92.5449 3.09719 92.5449 3.09719V24.8023C92.5449 26.8842 94.335 26.8842 94.335 26.8842H109.75C111.197 26.8842 112.37 25.7114 112.37 24.2636C112.37 22.8159 111.197 21.6431 109.75 21.6431L98.465 21.6543V15.3751H106.938C108.392 15.3751 109.57 14.1967 109.57 12.7433C109.57 11.2899 108.392 10.1115 106.938 10.1115H98.465V5.83559H110.081V5.85242Z" fill="white"/>
<path d="M169.579 12.3232H167.076L170.544 0.628906H173.35L176.818 12.3232H174.287L173.658 9.87099H170.191L169.579 12.3232ZM170.645 8.03043H173.209L171.936 2.93522H171.902L170.645 8.03043Z" fill="white"/>
<path d="M183.276 7.74424H182.193V12.3232H179.707V0.628906H183.579C186.211 0.628906 187.322 1.97005 187.322 4.06312C187.322 5.61189 186.693 6.75663 185.481 7.21115L187.95 12.3232H185.274L183.276 7.74424ZM182.193 5.88685H183.534C184.6 5.88685 184.875 5.29203 184.875 4.22585C184.875 3.06428 184.538 2.64342 183.517 2.64342H182.193V5.88685Z" fill="white"/>
<path d="M197.552 0.628906V2.77249H194.938V12.3232H192.468V2.77249H189.854V0.628906H197.547H197.552Z" fill="white"/>
<path d="M203.198 0.628906V12.3232H200.729V0.628906H203.198Z" fill="white"/>
<path d="M213.96 3.03612L212.282 3.77683C211.945 2.85655 211.249 2.42447 210.413 2.42447C209.443 2.42447 209.089 2.86216 209.089 3.53554C209.089 5.47149 214.044 5.3761 214.044 9.08527C214.044 11.2625 212.574 12.4914 210.318 12.4914C208.511 12.4914 206.912 11.4084 206.463 9.6857L208.32 9.04038C208.657 10.0729 209.499 10.5555 210.307 10.5555C211.289 10.5555 211.726 10.1683 211.726 9.37707C211.726 7.14932 206.659 7.39061 206.659 3.68144C206.659 1.89138 208.012 0.47168 210.178 0.47168C212.147 0.47168 213.371 1.48735 213.971 3.03612H213.96Z" fill="white"/>
<path d="M224.06 0.628906V2.77249H221.445V12.3232H218.976V2.77249H216.361V0.628906H224.055H224.06Z" fill="white"/>
<path d="M174.567 17.6256L172.76 18.2878C172.553 17.4348 172.036 16.9635 171.195 16.9635C170.112 16.9635 169.612 17.6593 169.612 18.9331V23.1136C169.612 24.2584 170.112 24.971 171.195 24.971C172.036 24.971 172.519 24.567 172.76 23.585L174.584 24.1966C174.163 26.0372 172.957 26.9407 170.987 26.9407C168.63 26.9407 167.115 25.4424 167.115 23.1305V18.9387C167.115 16.436 168.63 14.9209 170.987 14.9209C172.828 14.9209 174.197 16.1161 174.567 17.6312V17.6256Z" fill="white"/>
<path d="M185.712 19.0461V22.8057C185.712 25.3197 184.242 26.9358 181.548 26.9358C178.855 26.9358 177.385 25.3197 177.385 22.8057V19.0461C177.385 16.5265 178.855 14.916 181.548 14.916C184.242 14.916 185.712 16.5265 185.712 19.0461ZM183.226 19.0461C183.226 17.559 182.71 16.9642 181.548 16.9642C180.387 16.9642 179.854 17.559 179.854 19.0461V22.8057C179.854 24.3208 180.387 24.9493 181.548 24.9493C182.71 24.9493 183.226 24.3208 183.226 22.8057V19.0461Z" fill="white"/>
<path d="M191.603 15.0781V24.612H195.621V26.7724H189.201V15.0781H191.603Z" fill="white"/>
<path d="M206.507 19.0461V22.8057C206.507 25.3197 205.037 26.9358 202.343 26.9358C199.65 26.9358 198.18 25.3197 198.18 22.8057V19.0461C198.18 16.5265 199.65 14.916 202.343 14.916C205.037 14.916 206.507 16.5265 206.507 19.0461ZM204.021 19.0461C204.021 17.559 203.505 16.9642 202.343 16.9642C201.182 16.9642 200.649 17.559 200.649 19.0461V22.8057C200.649 24.3208 201.182 24.9493 202.343 24.9493C203.505 24.9493 204.021 24.3208 204.021 22.8057V19.0461Z" fill="white"/>
<path d="M213.561 22.1935H212.478V26.7724H209.992V15.0781H213.864C216.496 15.0781 217.607 16.4193 217.607 18.5123C217.607 20.0611 216.978 21.2058 215.766 21.6604L218.235 26.7724H215.559L213.561 22.1935ZM212.478 20.3361H213.819C214.885 20.3361 215.16 19.7413 215.16 18.6751C215.16 17.5135 214.824 17.0926 213.802 17.0926H212.478V20.3361Z" fill="white"/>
<path d="M227.915 17.4853L226.237 18.226C225.9 17.3058 225.205 16.8737 224.368 16.8737C223.398 16.8737 223.044 17.3114 223.044 17.9848C223.044 19.9207 227.999 19.8253 227.999 23.5345C227.999 25.7117 226.529 26.9407 224.273 26.9407C222.466 26.9407 220.867 25.8576 220.418 24.1349L222.275 23.4896C222.612 24.5221 223.454 25.0047 224.262 25.0047C225.244 25.0047 225.682 24.6175 225.682 23.8263C225.682 21.5985 220.614 21.8398 220.614 18.1307C220.614 16.3406 221.967 14.9209 224.133 14.9209C226.102 14.9209 227.326 15.9366 227.926 17.4853H227.915Z" fill="white"/>
</svg>
